<svg width="1024" height="1024" viewBox="0 0 1024 1024" fill="none" xmlns="http://www.w3.org/2000/svg">
<path d="M830.087 255L827.087 866H699.087L369.087 328C366.42 523.333 364.754 670.667 364.087 770L433.087 779C433.087 806.333 425.42 835.333 410.087 866H167.087L158.087 811C195.42 795.667 223.42 786 242.087 782C242.087 780 239.087 603.667 233.087 253L150.087 227L158.087 166H418.087L709.087 688L694.087 253L611.087 227L619.087 166H879.087C878.42 166 878.42 166.667 879.087 168C880.42 169.333 881.754 172.333 883.087 177C885.087 181 887.087 186 889.087 192C893.087 202.667 895.754 220.333 897.087 245C863.087 250.333 840.754 253.667 830.087 255Z" fill="#FB9A08"/>
</svg>
